# xmcd
#
# Track frame offsets:
#	150
#	12243
#	23517
#	36556
#	47559
#	62318
#	75584
#	85386
#	98178
#	110855
#	121766
#	132948
#	146079
#	158938
#	171052
#	183770
#	197847
#	208447
#	222667
#	235438
#	247325
#	257513
#	268808
#	279619
#	290309
#	304165
#
# Disc length: 4212 seconds
#
# Revision: 0
# Processed by: cddbd v1.5.2PL0 Copyright (c) Steve Scherf et al.
# Submitted via: EasyCDDAExtractor 9.0.0.1
#
DISCID=8910721a
DTITLE=Kay Starr - Capitol Collector Series 2
DYEAR=1900
DGENRE=
TTITLE0=Allez-Vous-En
TTITLE1=Bonaparte's Retreat
TTITLE2=Changing Partners
TTITLE3=Come Along A Love
TTITLE4=Crazy
TTITLE5=Half A Photograph
TTITLE6=Hoop-Dee-Do
TTITLE7=If You Love Me 
TTITLE8=I'm The Lonesomest Gal In Town
TTITLE9=Lazy River
TTITLE10=Mississippi
TTITLE11=Side By Side
TTITLE12=So Tired
TTITLE13=The Man Upstairs
TTITLE14=The Rock And Roll Waltz
TTITLE15=Wheel Of Fortune
TTITLE16=When My Dreamboat Comes Home
TTITLE17=You Were Only Fooling
TTITLE18=You've Got To See Mama Ev'ry Night
TTITLE19=I'll Never Be Free
TTITLE20=Fool, Fool, Fool
TTITLE21=Toy Or Treasure
TTITLE22=Foolin' Around
TTITLE23=Kay's Lament
TTITLE24=I Waited A Little Too Long
TTITLE25=I'll Never Be Free
EXTD=
EXTT0=
EXTT1=
EXTT2=
EXTT3=
EXTT4=
EXTT5=
EXTT6=
EXTT7=
EXTT8=
EXTT9=
EXTT10=
EXTT11=
EXTT12=
EXTT13=
EXTT14=
EXTT15=
EXTT16=
EXTT17=
EXTT18=
EXTT19=
EXTT20=
EXTT21=
EXTT22=
EXTT23=
EXTT24=
EXTT25=
PLAYORDER=
